# xmcd CD database file
#
# Track frame offsets:
#	187
#	21075
#	43947
#	62935
#	88525
#	104032
#	122350
#	139965
#	160642
#	179525
#
# Disc length: 2684 seconds
#
# Revision: 0
# Processed by: cddbd v1.5.1PL2 Copyright (c) Steve Scherf et al.
# Submitted via: CDex 1.51
#
DISCID=890a7a0a
DTITLE=浅香唯 - STAY
DYEAR=1900
DGENRE=JPop
TTITLE0=Stay with me
TTITLE1=友情
TTITLE2=愛しい人と眠りたい
TTITLE3=WORKING GIRL
TTITLE4=休日、ひだまりのキッチンで
TTITLE5=友達に戻ろう
TTITLE6=あなたを忘れない
TTITLE7=ルカ
TTITLE8=黒い鳥
TTITLE9=Rhythm of Universe
EXTD=
EXTT0=
EXTT1=
EXTT2=
EXTT3=
EXTT4=
EXTT5=
EXTT6=
EXTT7=
EXTT8=
EXTT9=
PLAYORDER=
